<mxfile host="app.diagrams.net" modified="2024-02-08T09:43:33.079Z" agent="Mozilla/5.0 (Macintosh; Intel Mac OS X 10_15_7) AppleWebKit/537.36 (KHTML, like Gecko) Chrome/120.0.0.0 Safari/537.36" version="22.1.18" etag="mXsoCuummYiipY-BMMfq" type="github">
  <diagram name="Page-1" id="3Xuz1DpOQZ4fhiu_e89Q">
    <mxGraphModel>
      <root>
        <mxCell id="0" />
        <mxCell id="1" parent="0" />
      </root>
    </mxGraphModel>
  </diagram>
</mxfile>
